<?xml version="1.0" encoding="UTF-8"?><svg id="Capa_2" xmlns="http://www.w3.org/2000/svg" xmlns:xlink="http://www.w3.org/1999/xlink" viewBox="0 0 159.29 24.29"><defs><style>.cls-1{fill:url(#Degradado_sin_nombre_4-2);}.cls-2{fill:url(#Degradado_sin_nombre_4-3);}.cls-3{fill:url(#Degradado_sin_nombre_4-8);}.cls-4{fill:url(#Degradado_sin_nombre_4-9);}.cls-5{fill:url(#Degradado_sin_nombre_4-6);}.cls-6{fill:url(#Degradado_sin_nombre_4-4);}.cls-7{fill:url(#Degradado_sin_nombre_4-5);}.cls-8{fill:url(#Degradado_sin_nombre_4-7);}.cls-9{fill:url(#Degradado_sin_nombre_4);}.cls-10{fill:url(#Degradado_sin_nombre_4-12);}.cls-11{fill:url(#Degradado_sin_nombre_4-11);}.cls-12{fill:url(#Degradado_sin_nombre_4-10);}</style><linearGradient id="Degradado_sin_nombre_4" x1="-12.49" y1="5.98" x2="165.2" y2="60.15" gradientUnits="userSpaceOnUse"><stop offset="0" stop-color="#00a6d7"/><stop offset=".98" stop-color="#773db1"/></linearGradient><linearGradient id="Degradado_sin_nombre_4-2" x1="-10.98" y1="1.03" x2="166.71" y2="55.19" xlink:href="#Degradado_sin_nombre_4"/><linearGradient id="Degradado_sin_nombre_4-3" x1="-10.78" y1=".38" x2="166.9" y2="54.55" xlink:href="#Degradado_sin_nombre_4"/><linearGradient id="Degradado_sin_nombre_4-4" x1="-9.6" y1="-3.5" x2="168.09" y2="50.67" xlink:href="#Degradado_sin_nombre_4"/><linearGradient id="Degradado_sin_nombre_4-5" x1="-7.91" y1="-9.03" x2="169.77" y2="45.14" xlink:href="#Degradado_sin_nombre_4"/><linearGradient id="Degradado_sin_nombre_4-6" x1="-6.9" y1="-12.35" x2="170.79" y2="41.81" xlink:href="#Degradado_sin_nombre_4"/><linearGradient id="Degradado_sin_nombre_4-7" x1="-5.72" y1="-16.24" x2="171.97" y2="37.93" xlink:href="#Degradado_sin_nombre_4"/><linearGradient id="Degradado_sin_nombre_4-8" x1="-7.57" y1="-33.12" x2="170.12" y2="21.05" xlink:href="#Degradado_sin_nombre_4"/><linearGradient id="Degradado_sin_nombre_4-9" x1="-6.45" y1="-36.79" x2="171.24" y2="17.37" xlink:href="#Degradado_sin_nombre_4"/><linearGradient id="Degradado_sin_nombre_4-10" x1="-3.77" y1="-22.62" x2="173.92" y2="31.55" xlink:href="#Degradado_sin_nombre_4"/><linearGradient id="Degradado_sin_nombre_4-11" x1="-2.68" y1="-26.2" x2="175.01" y2="27.97" xlink:href="#Degradado_sin_nombre_4"/><linearGradient id="Degradado_sin_nombre_4-12" x1="-2.15" y1="-27.94" x2="175.54" y2="26.22" xlink:href="#Degradado_sin_nombre_4"/></defs><g id="Capa_2-2"><g><path class="cls-9" d="M15.47,15.15c0,2.92-2.31,4.6-6.75,4.6H0V2.88H8.24c4.22,0,6.39,1.76,6.39,4.39,0,1.69-.87,2.99-2.24,3.71,1.88,.6,3.08,2.05,3.08,4.17ZM3.88,5.82v3.98h3.88c1.9,0,2.94-.67,2.94-2s-1.04-1.98-2.94-1.98H3.88Zm7.66,8.92c0-1.42-1.08-2.1-3.11-2.1H3.88v4.17h4.55c2.02,0,3.11-.63,3.11-2.07Z"/><path class="cls-1" d="M17.71,2.88c0-1.18,.94-2.1,2.34-2.1s2.34,.87,2.34,2.02c0,1.25-.94,2.17-2.34,2.17s-2.34-.92-2.34-2.1Zm.46,3.9h3.76v12.96h-3.76V6.79Z"/><path class="cls-2" d="M38.05,14.33h-9.81c.36,1.61,1.73,2.6,3.71,2.6,1.37,0,2.36-.41,3.25-1.25l2,2.17c-1.21,1.37-3.01,2.1-5.35,2.1-4.48,0-7.4-2.82-7.4-6.67s2.96-6.67,6.92-6.67,6.75,2.55,6.75,6.72c0,.29-.05,.7-.07,1.01Zm-9.85-2.19h6.38c-.27-1.64-1.49-2.7-3.18-2.7s-2.94,1.04-3.2,2.7Z"/><path class="cls-6" d="M53.88,12.33v7.42h-3.76v-6.84c0-2.1-.96-3.06-2.63-3.06-1.81,0-3.11,1.11-3.11,3.49v6.41h-3.76V6.79h3.59v1.52c1.01-1.11,2.53-1.71,4.29-1.71,3.06,0,5.37,1.78,5.37,5.73Z"/><path class="cls-7" d="M69.91,6.79l-5.47,12.96h-3.88l-5.44-12.96h3.88l3.59,8.82,3.71-8.82h3.61Z"/><path class="cls-5" d="M83.72,14.33h-9.81c.36,1.61,1.73,2.6,3.71,2.6,1.37,0,2.36-.41,3.25-1.25l2,2.17c-1.21,1.37-3.01,2.1-5.35,2.1-4.48,0-7.4-2.82-7.4-6.67s2.96-6.67,6.92-6.67,6.75,2.55,6.75,6.72c0,.29-.05,.7-.07,1.01Zm-9.85-2.19h6.38c-.27-1.64-1.49-2.7-3.18-2.7s-2.94,1.04-3.2,2.7Z"/><path class="cls-8" d="M99.55,12.33v7.42h-3.76v-6.84c0-2.1-.96-3.06-2.63-3.06-1.81,0-3.11,1.11-3.11,3.49v6.41h-3.76V6.79h3.59v1.52c1.01-1.11,2.53-1.71,4.29-1.71,3.06,0,5.37,1.78,5.37,5.73Z"/><g><path class="cls-3" d="M145.98,7.6c0-1.51,1.12-2.49,2.52-2.49s2.52,.99,2.52,2.49-1.12,2.54-2.52,2.54-2.52-1.06-2.52-2.54Zm5.04,9.32c0,.67-.1,1.17-.7,2.6l-1.48,3.74h-2.57l1.14-4.13c-.86-.34-1.4-1.14-1.4-2.21,0-1.51,1.09-2.49,2.52-2.49s2.49,1.01,2.49,2.49Z"/><path class="cls-4" d="M152.16,24.29c2.23-3.89,3.17-7.79,3.17-12.15s-.93-8.25-3.17-12.15h3.87c2.13,3.09,3.27,7.37,3.27,12.15s-1.14,9.01-3.27,12.15h-3.87Z"/></g><path class="cls-12" d="M102.49,2.88c0-1.18,.94-2.1,2.34-2.1s2.34,.87,2.34,2.02c0,1.25-.94,2.17-2.34,2.17s-2.34-.92-2.34-2.1Zm.46,3.9h3.76v12.96h-3.76V6.79Z"/><path class="cls-11" d="M123.41,1.87V19.75h-3.59v-1.49c-.94,1.13-2.31,1.69-4.05,1.69-3.66,0-6.48-2.6-6.48-6.67s2.82-6.67,6.48-6.67c1.59,0,2.94,.51,3.88,1.57V1.87h3.76Zm-3.69,11.4c0-2.24-1.45-3.59-3.3-3.59s-3.33,1.35-3.33,3.59,1.45,3.59,3.33,3.59,3.3-1.35,3.3-3.59Z"/><path class="cls-10" d="M125.92,13.27c0-3.9,3.01-6.67,7.13-6.67s7.11,2.77,7.11,6.67-2.99,6.67-7.11,6.67-7.13-2.77-7.13-6.67Zm10.43,0c0-2.24-1.42-3.59-3.3-3.59s-3.32,1.35-3.32,3.59,1.45,3.59,3.32,3.59,3.3-1.35,3.3-3.59Z"/></g></g></svg>