<?xml version="1.0" encoding="utf-8"?>
<!-- Generator: Adobe Illustrator 26.5.0, SVG Export Plug-In . SVG Version: 6.00 Build 0)  -->
<svg version="1.1" id="Capa_1" xmlns="http://www.w3.org/2000/svg" xmlns:xlink="http://www.w3.org/1999/xlink" x="0px" y="0px"
	 viewBox="0 0 113.1 56.7" style="enable-background:new 0 0 113.1 56.7;" xml:space="preserve">
<style type="text/css">
	.st0{fill:#1D1D1B;}
</style>
<path class="st0" d="M50.8,14.7H5.9C2.6,14.7,0,12,0,8.8v0c0-3.3,2.6-5.9,5.9-5.9h44.9c3.3,0,5.9,2.6,5.9,5.9v0
	C56.7,12,54.1,14.7,50.8,14.7z"/>
<path class="st0" d="M50.8,34.2H5.9c-3.3,0-5.9-2.6-5.9-5.9v0c0-3.3,2.6-5.9,5.9-5.9h44.9c3.3,0,5.9,2.6,5.9,5.9v0
	C56.7,31.6,54.1,34.2,50.8,34.2z"/>
<path class="st0" d="M93.2,28.3l11.7-11.7c2.3-2.3,2.3-6,0-8.3c-2.3-2.3-6-2.3-8.3,0L84.9,20L73.2,8.3c-2.3-2.3-6-2.3-8.3,0
	c-2.3,2.3-2.3,6,0,8.3l11.7,11.7L64.9,40c-2.3,2.3-2.3,6,0,8.3v0c2.3,2.3,6,2.3,8.3,0l11.7-11.7l11.7,11.7c2.3,2.3,6,2.3,8.3,0v0
	c2.3-2.3,2.3-6,0-8.3L93.2,28.3z"/>
<path class="st0" d="M50.8,53.8H5.9c-3.3,0-5.9-2.6-5.9-5.9v0C0,44.7,2.6,42,5.9,42h44.9c3.3,0,5.9,2.6,5.9,5.9v0
	C56.7,51.2,54.1,53.8,50.8,53.8z"/>
</svg>
