<?xml version="1.0" encoding="UTF-8"?><svg id="Capa_2" xmlns="http://www.w3.org/2000/svg" xmlns:xlink="http://www.w3.org/1999/xlink" viewBox="0 0 24.55 24.55"><defs><style>.cls-1{fill:url(#Degradado_sin_nombre_25);}</style><linearGradient id="Degradado_sin_nombre_25" x1="0" y1="12.28" x2="24.55" y2="12.28" gradientUnits="userSpaceOnUse"><stop offset="0" stop-color="#7441a1"/><stop offset=".98" stop-color="#773da0"/></linearGradient></defs><g id="Capa_3"><path class="cls-1" d="M12.28,24.55H3.64s-.07-.04-.11-.05C1.53,24.18,0,22.4,0,20.38c0-5.4,0-10.8,0-16.21,0-.14,0-.29,.01-.43C.23,1.67,2.08,0,4.17,0,9.56,0,14.96,0,20.35,0c1.7,0,2.93,.84,3.73,2.3,.23,.41,.32,.89,.47,1.34V20.91s-.04,.05-.04,.08c-.26,1.49-1.11,2.54-2.45,3.2-.36,.17-.76,.25-1.15,.37h-4.8c0-.05-.02-.11-.02-.16,0-2.96,0-5.93,0-8.89,0-.18,.05-.23,.23-.23,1.19,0,2.38,0,3.57,0,.09,0,.19,0,.29,0v-4.09h-4.06c0-.65-.03-1.26,0-1.88,.03-.55,.43-.86,.98-.86,.93,0,1.87,0,2.8,0h.26V4.38s-.08-.01-.11-.01c-1.05,0-2.11-.01-3.16,0-.36,0-.74,.05-1.09,.16-1.43,.42-2.38,1.4-3.01,2.72-.44,.92-.55,1.91-.53,2.92,0,.33,0,.67,0,1.03h-2.97v4.09h2.97v9.28Z"/></g></svg>