<?xml version="1.0" encoding="UTF-8"?><svg id="Capa_2" xmlns="http://www.w3.org/2000/svg" xmlns:xlink="http://www.w3.org/1999/xlink" viewBox="0 0 28.9 28.9"><defs><style>.cls-1{fill:url(#Degradado_sin_nombre_25);}</style><linearGradient id="Degradado_sin_nombre_25" x1="0" y1="14.45" x2="28.9" y2="14.45" gradientUnits="userSpaceOnUse"><stop offset="0" stop-color="#7441a1"/><stop offset=".98" stop-color="#773da0"/></linearGradient></defs><g id="Capa_3"><path class="cls-1" d="M14.45,0C6.47,0,0,6.47,0,14.45s6.47,14.45,14.45,14.45,14.45-6.47,14.45-14.45S22.43,0,14.45,0Zm-4.83,4.65c.44-.25,.87-.5,1.31-.75,.42-.24,.78-.14,1.02,.27,.91,1.57,1.82,3.15,2.72,4.72,.07,.12,.11,.27,.16,.4-.03,.26-.14,.45-.35,.57-.5,.29-.99,.59-1.5,.86-.35,.19-.72,.07-.93-.3-.48-.82-.95-1.65-1.43-2.48-.43-.74-.86-1.49-1.29-2.23-.26-.45-.17-.81,.29-1.07Zm9.86,19.64c-.52,.31-1.06,.59-1.65,.75-.76,.2-1.49,.09-2.18-.27-.87-.45-1.62-1.06-2.33-1.73-1.45-1.38-2.64-2.96-3.68-4.67-1.11-1.82-2.04-3.73-2.66-5.78-.37-1.24-.63-2.51-.58-3.82,.03-.86,.34-1.6,1.01-2.15,.42-.35,.89-.64,1.35-.97,1.01,1.75,2,3.47,2.98,5.16-.19,.2-.38,.37-.53,.57-.25,.32-.34,.71-.38,1.11-.09,1.02,.18,1.97,.57,2.9,.46,1.09,1.08,2.07,1.94,2.89,.43,.41,.9,.75,1.47,.94,.55,.19,1.09,.18,1.61-.09,.03-.01,.06-.02,.1-.04,.99,1.72,1.98,3.43,2.96,5.13,0,.02,0,.03-.02,.04Zm2.72-1.15c-.52,.31-1.04,.62-1.58,.91-.32,.17-.68,.04-.87-.3-.25-.42-.49-.84-.73-1.26-.67-1.16-1.34-2.31-2-3.47-.26-.46-.17-.81,.29-1.08,.43-.25,.86-.5,1.29-.74,.43-.25,.79-.15,1.04,.28,.91,1.57,1.81,3.14,2.71,4.71,.07,.13,.11,.28,.17,.41-.04,.24-.12,.43-.31,.54Z"/></g></svg>