<?xml version="1.0" encoding="UTF-8"?><svg id="Capa_2" xmlns="http://www.w3.org/2000/svg" viewBox="0 0 268.49 67.42"><defs><style>.cls-1{fill:#00b2e3;}</style></defs><g id="Capa_2-2"><g><path class="cls-1" d="M56.91,44.77c4.82,0,8.74-3.91,8.74-8.74s-3.91-8.74-8.74-8.74-8.74,3.91-8.74,8.74,3.91,8.74,8.74,8.74Zm-25.6,7.14c-3.14,0-5.68,2.54-5.68,5.68s2.54,5.68,5.68,5.68,5.68-2.54,5.68-5.68-2.54-5.68-5.68-5.68Zm43.92,4.98c-2.22,0-4.02,1.8-4.02,4.02s1.8,4.02,4.02,4.02,4.02-1.8,4.02-4.02-1.8-4.02-4.02-4.02Zm23.19-20.34c-.54-6.55-5.88-11.83-12.44-12.29-5.98-.42-11.2,3.06-13.38,8.16v.03s-.01,0-.02,.01l-3.84,9.15c-1.87,4.46-5.57,7.88-10.15,9.41h0c-3.23,1.07-6.8,.27-9.26-2.09-.99-.95-1.77-1.7-1.77-1.7-1.99-1.9-3.3-4.38-3.78-7.04-.17-.91-.23-1.85-.2-2.79l.39-10.17,.19-4.76h0c0-.13,0-.27,0-.41C44.14,9.37,33.4-.83,20.5,.05,9.62,.81,.81,9.63,.05,20.5c-.13,1.92-.02,3.79,.31,5.58,1.89,10.27,10.89,18.05,21.7,18.05,.49,0,9.68,.66,13.27,2.69l2.47,1.4c2.41,1.37,4.28,3.5,5.32,6.06l3.07,7.58h0c.79,3.18,3.66,5.55,7.1,5.55,2.33,0,4.41-1.09,5.74-2.79,1.1-1.39,9.11-9.49,9.11-9.49,1.91-1.93,4.46-3.1,7.17-3.29l10.7-.73c5.58-.43,10.21-4.27,11.81-9.43,.39-1.26,.61-2.6,.61-4,0-.38-.01-.76-.05-1.15Z"/><g><path class="cls-1" d="M119.16,32.86l2.25-5c2.42,1.76,6.02,2.99,9.46,2.99,3.93,0,5.53-1.31,5.53-3.07,0-5.36-16.67-1.68-16.67-12.33,0-4.87,3.93-8.93,12.08-8.93,3.6,0,7.29,.86,9.95,2.54l-2.05,5.04c-2.66-1.52-5.41-2.25-7.94-2.25-3.93,0-5.45,1.47-5.45,3.28,0,5.28,16.67,1.64,16.67,12.16,0,4.79-3.97,8.89-12.16,8.89-4.55,0-9.13-1.35-11.67-3.32Z"/><path class="cls-1" d="M170.59,26.47h-16.67c.61,2.74,2.95,4.42,6.31,4.42,2.33,0,4.01-.7,5.53-2.13l3.4,3.69c-2.05,2.33-5.12,3.56-9.09,3.56-7.62,0-12.57-4.79-12.57-11.34s5.04-11.34,11.75-11.34,11.46,4.34,11.46,11.42c0,.49-.08,1.19-.12,1.72Zm-16.75-3.73h10.85c-.45-2.78-2.54-4.59-5.4-4.59s-5,1.76-5.45,4.59Z"/><path class="cls-1" d="M190.69,13.33v5.9c-.53-.04-.94-.08-1.43-.08-3.52,0-5.86,1.92-5.86,6.14v10.4h-6.39V13.66h6.1v2.91c1.56-2.13,4.18-3.23,7.57-3.23Z"/><path class="cls-1" d="M223.73,7.02l-12.41,28.67h-6.55l-12.37-28.67h7.17l8.72,20.48,8.85-20.48h6.59Z"/><path class="cls-1" d="M228.15,7.02h6.63v28.67h-6.63V7.02Z"/><path class="cls-1" d="M268.49,17.42c0,6.39-4.79,10.36-12.45,10.36h-5.78v7.9h-6.63V7.02h12.41c7.66,0,12.45,3.97,12.45,10.4Zm-6.71,0c0-3.15-2.05-5-6.1-5h-5.41v9.95h5.41c4.05,0,6.1-1.84,6.1-4.96Z"/><path class="cls-1" d="M119.16,57.98c0-5.45,4.17-9.39,9.78-9.39,2.97,0,5.53,1.07,7.23,3.05l-2.19,2.06c-1.33-1.44-2.97-2.14-4.88-2.14-3.78,0-6.52,2.66-6.52,6.42s2.74,6.42,6.52,6.42c1.91,0,3.55-.7,4.88-2.17l2.19,2.09c-1.69,1.98-4.25,3.05-7.25,3.05-5.58,0-9.76-3.94-9.76-9.39Z"/><path class="cls-1" d="M150.66,58.94v8.17h-3.08v-1.7c-.78,1.2-2.3,1.88-4.38,1.88-3.18,0-5.19-1.75-5.19-4.17s1.56-4.15,5.79-4.15h3.6v-.21c0-1.9-1.15-3.03-3.47-3.03-1.56,0-3.18,.52-4.23,1.38l-1.28-2.37c1.49-1.15,3.65-1.72,5.9-1.72,4.02,0,6.34,1.9,6.34,5.92Zm-3.26,3.81v-1.62h-3.37c-2.22,0-2.82,.83-2.82,1.85,0,1.17,.99,1.93,2.66,1.93s2.97-.73,3.52-2.17Z"/><path class="cls-1" d="M154.84,47.75h3.26v19.36h-3.26v-19.36Z"/><path class="cls-1" d="M162.38,47.75h3.26v19.36h-3.26v-19.36Z"/><path class="cls-1" d="M176.14,57.98c0-5.45,4.17-9.39,9.78-9.39,2.97,0,5.53,1.07,7.23,3.05l-2.19,2.06c-1.33-1.44-2.97-2.14-4.88-2.14-3.78,0-6.52,2.66-6.52,6.42s2.74,6.42,6.52,6.42c1.9,0,3.55-.7,4.88-2.17l2.19,2.09c-1.7,1.98-4.25,3.05-7.25,3.05-5.58,0-9.76-3.94-9.76-9.39Z"/><path class="cls-1" d="M208.63,61.19h-10.93c.39,2.03,2.09,3.34,4.52,3.34,1.56,0,2.79-.5,3.78-1.51l1.75,2.01c-1.25,1.49-3.21,2.27-5.61,2.27-4.67,0-7.7-3-7.7-7.15s3.05-7.12,7.2-7.12,7.04,2.84,7.04,7.2c0,.26-.02,.65-.05,.97Zm-10.96-2.17h7.91c-.26-2.01-1.8-3.39-3.94-3.39s-3.65,1.36-3.97,3.39Z"/><path class="cls-1" d="M225.54,59.12v7.98h-3.26v-7.57c0-2.48-1.23-3.68-3.31-3.68-2.32,0-3.89,1.41-3.89,4.2v7.04h-3.26v-13.93h3.1v1.8c1.07-1.28,2.77-1.96,4.8-1.96,3.34,0,5.82,1.9,5.82,6.1Z"/><path class="cls-1" d="M238.08,66.35c-.78,.63-1.96,.94-3.13,.94-3.05,0-4.8-1.62-4.8-4.7v-6.7h-2.3v-2.61h2.3v-3.18h3.26v3.18h3.73v2.61h-3.73v6.63c0,1.36,.68,2.09,1.93,2.09,.68,0,1.33-.18,1.83-.57l.91,2.32Z"/><path class="cls-1" d="M253.34,61.19h-10.93c.39,2.03,2.09,3.34,4.52,3.34,1.56,0,2.79-.5,3.78-1.51l1.75,2.01c-1.25,1.49-3.21,2.27-5.61,2.27-4.67,0-7.7-3-7.7-7.15s3.05-7.12,7.2-7.12,7.04,2.84,7.04,7.2c0,.26-.02,.65-.05,.97Zm-10.96-2.17h7.91c-.26-2.01-1.8-3.39-3.94-3.39s-3.65,1.36-3.97,3.39Z"/><path class="cls-1" d="M264.6,53.02v3.1c-.29-.05-.52-.08-.76-.08-2.48,0-4.04,1.46-4.04,4.3v6.76h-3.26v-13.93h3.1v2.03c.94-1.46,2.64-2.19,4.96-2.19Z"/></g></g></g></svg>