<?xml version="1.0" encoding="UTF-8"?><svg id="Capa_2" xmlns="http://www.w3.org/2000/svg" viewBox="0 0 175.68 44.12"><defs><style>.cls-1{fill:#773da0;}</style></defs><g id="Capa_2-2"><g><path class="cls-1" d="M37.24,29.3c3.16,0,5.72-2.56,5.72-5.72s-2.56-5.72-5.72-5.72-5.72,2.56-5.72,5.72,2.56,5.72,5.72,5.72Zm-16.75,4.67c-2.05,0-3.72,1.67-3.72,3.72s1.67,3.72,3.72,3.72,3.72-1.67,3.72-3.72-1.67-3.72-3.72-3.72Zm28.74,3.26c-1.45,0-2.63,1.18-2.63,2.63s1.18,2.63,2.63,2.63,2.63-1.18,2.63-2.63-1.18-2.63-2.63-2.63Zm15.17-13.31c-.35-4.29-3.85-7.74-8.14-8.04-3.91-.27-7.33,2-8.76,5.34v.02s0,0-.01,0l-2.51,5.99c-1.22,2.92-3.64,5.16-6.64,6.16h0c-2.11,.7-4.45,.18-6.06-1.37-.65-.62-1.16-1.11-1.16-1.11-1.3-1.24-2.16-2.86-2.47-4.6-.11-.6-.15-1.21-.13-1.83l.26-6.65,.12-3.12h0c0-.09,0-.17,0-.27C28.88,6.13,21.85-.55,13.42,.04,6.29,.53,.53,6.3,.04,13.42c-.09,1.26-.01,2.48,.21,3.65,1.24,6.72,7.12,11.81,14.2,11.81,.32,0,6.34,.43,8.68,1.76l1.62,.92c1.58,.89,2.8,2.29,3.48,3.97l2.01,4.96h0c.52,2.08,2.4,3.63,4.64,3.63,1.53,0,2.88-.72,3.76-1.82,.72-.91,5.96-6.21,5.96-6.21,1.25-1.27,2.92-2.03,4.69-2.15l7-.48c3.65-.28,6.68-2.79,7.73-6.17,.26-.82,.4-1.7,.4-2.61,0-.25,0-.5-.03-.75Z"/><g><path class="cls-1" d="M77.97,21.5l1.47-3.27c1.58,1.15,3.94,1.96,6.19,1.96,2.57,0,3.62-.86,3.62-2.01,0-3.51-10.91-1.1-10.91-8.07,0-3.19,2.57-5.84,7.9-5.84,2.36,0,4.77,.56,6.51,1.66l-1.34,3.3c-1.74-.99-3.54-1.47-5.2-1.47-2.57,0-3.56,.96-3.56,2.14,0,3.46,10.91,1.07,10.91,7.96,0,3.13-2.6,5.81-7.96,5.81-2.97,0-5.98-.88-7.64-2.17Z"/><path class="cls-1" d="M111.62,17.32h-10.91c.4,1.8,1.93,2.89,4.13,2.89,1.53,0,2.63-.46,3.62-1.39l2.23,2.41c-1.34,1.53-3.35,2.33-5.95,2.33-4.98,0-8.23-3.13-8.23-7.42s3.3-7.42,7.69-7.42,7.5,2.84,7.5,7.48c0,.32-.05,.78-.08,1.13Zm-10.96-2.44h7.1c-.29-1.82-1.66-3-3.54-3s-3.27,1.15-3.56,3Z"/><path class="cls-1" d="M124.78,8.72v3.86c-.35-.03-.62-.05-.94-.05-2.3,0-3.83,1.26-3.83,4.02v6.81h-4.18V8.94h3.99v1.9c1.02-1.39,2.73-2.12,4.96-2.12Z"/><path class="cls-1" d="M146.4,4.59l-8.12,18.76h-4.29l-8.09-18.76h4.69l5.71,13.4,5.79-13.4h4.31Z"/><path class="cls-1" d="M149.29,4.59h4.34V23.35h-4.34V4.59Z"/><path class="cls-1" d="M175.68,11.4c0,4.18-3.13,6.78-8.14,6.78h-3.78v5.17h-4.34V4.59h8.12c5.01,0,8.14,2.6,8.14,6.81Zm-4.39,0c0-2.06-1.34-3.27-3.99-3.27h-3.54v6.51h3.54c2.65,0,3.99-1.21,3.99-3.24Z"/><path class="cls-1" d="M77.97,37.94c0-3.57,2.73-6.15,6.4-6.15,1.95,0,3.62,.7,4.73,2l-1.43,1.35c-.87-.94-1.95-1.4-3.19-1.4-2.47,0-4.27,1.74-4.27,4.2s1.79,4.2,4.27,4.2c1.25,0,2.32-.46,3.19-1.42l1.43,1.37c-1.11,1.3-2.78,2-4.74,2-3.65,0-6.38-2.58-6.38-6.15Z"/><path class="cls-1" d="M98.58,38.57v5.34h-2.02v-1.11c-.51,.79-1.5,1.23-2.87,1.23-2.08,0-3.4-1.14-3.4-2.73s1.02-2.71,3.79-2.71h2.36v-.14c0-1.25-.75-1.98-2.27-1.98-1.02,0-2.08,.34-2.77,.9l-.84-1.55c.97-.75,2.39-1.13,3.86-1.13,2.63,0,4.15,1.25,4.15,3.87Zm-2.13,2.49v-1.06h-2.2c-1.45,0-1.84,.55-1.84,1.21,0,.77,.65,1.26,1.74,1.26s1.95-.48,2.3-1.42Z"/><path class="cls-1" d="M101.32,31.24h2.13v12.67h-2.13v-12.67Z"/><path class="cls-1" d="M106.25,31.24h2.13v12.67h-2.13v-12.67Z"/><path class="cls-1" d="M115.26,37.94c0-3.57,2.73-6.15,6.4-6.15,1.95,0,3.62,.7,4.73,2l-1.43,1.35c-.87-.94-1.95-1.4-3.19-1.4-2.48,0-4.27,1.74-4.27,4.2s1.79,4.2,4.27,4.2c1.25,0,2.32-.46,3.19-1.42l1.43,1.37c-1.11,1.3-2.78,2-4.75,2-3.65,0-6.38-2.58-6.38-6.15Z"/><path class="cls-1" d="M136.52,40.04h-7.15c.26,1.33,1.37,2.19,2.95,2.19,1.02,0,1.83-.32,2.47-.99l1.14,1.32c-.82,.97-2.1,1.48-3.67,1.48-3.06,0-5.04-1.96-5.04-4.68s2-4.66,4.71-4.66,4.61,1.86,4.61,4.71c0,.17-.02,.43-.03,.63Zm-7.17-1.42h5.17c-.17-1.31-1.18-2.22-2.58-2.22s-2.39,.89-2.59,2.22Z"/><path class="cls-1" d="M147.58,38.69v5.22h-2.13v-4.95c0-1.62-.8-2.41-2.17-2.41-1.52,0-2.54,.92-2.54,2.75v4.61h-2.13v-9.12h2.03v1.18c.7-.84,1.81-1.28,3.14-1.28,2.19,0,3.81,1.25,3.81,3.99Z"/><path class="cls-1" d="M155.78,43.42c-.51,.41-1.28,.61-2.05,.61-2,0-3.14-1.06-3.14-3.07v-4.39h-1.5v-1.71h1.5v-2.08h2.13v2.08h2.44v1.71h-2.44v4.34c0,.89,.44,1.37,1.26,1.37,.44,0,.87-.12,1.19-.38l.6,1.52Z"/><path class="cls-1" d="M165.77,40.04h-7.15c.26,1.33,1.37,2.19,2.95,2.19,1.02,0,1.83-.32,2.47-.99l1.14,1.32c-.82,.97-2.1,1.48-3.67,1.48-3.06,0-5.04-1.96-5.04-4.68s2-4.66,4.71-4.66,4.61,1.86,4.61,4.71c0,.17-.02,.43-.03,.63Zm-7.17-1.42h5.17c-.17-1.31-1.18-2.22-2.58-2.22s-2.39,.89-2.59,2.22Z"/><path class="cls-1" d="M173.14,34.69v2.03c-.19-.03-.34-.05-.5-.05-1.62,0-2.65,.96-2.65,2.82v4.42h-2.13v-9.12h2.03v1.33c.61-.96,1.72-1.43,3.24-1.43Z"/></g></g></g></svg>