<?xml version="1.0" encoding="UTF-8"?><svg id="Capa_2" xmlns="http://www.w3.org/2000/svg" viewBox="0 0 103.63 103.63"><defs><style>.cls-1{fill:#fff;}</style></defs><g id="Capa_3"><g><path class="cls-1" d="M51.81,103.63C23.24,103.63,0,80.38,0,51.81S23.24,0,51.81,0s51.81,23.24,51.81,51.81-23.24,51.81-51.81,51.81Zm0-100.3C25.08,3.33,3.33,25.08,3.33,51.81s21.75,48.49,48.49,48.49,48.49-21.75,48.49-48.49S78.55,3.33,51.81,3.33Z"/><g><path class="cls-1" d="M75.28,21.73c.32,.38,.72,.72,.94,1.15,1.91,3.9,2.79,8.04,2.67,12.38-.17,6.02-2.68,10.91-7.42,14.61-2.44,1.9-5.29,2.95-8.37,3.24-1.26,.12-2.54,.1-3.81,.11-1.04,.01-1.56,.36-1.86,1.35-.94,3.12-1.46,6.32-1.8,9.55-.08,.72-.16,1.43-.24,2.18-1.26-.25-2.48-.48-3.86-.75,.57-2.57,1.1-5.17,1.74-7.74,.55-2.18,1.47-4.21,2.92-5.96,1.15-1.38,2.34-2.74,3.56-4.06,1.79-1.95,3.73-3.77,5.41-5.8,2.79-3.36,4.77-7.19,6.1-11.35,0-.03-.01-.07-.02-.1-.52,.96-1.01,1.95-1.58,2.89-2.27,3.78-5.24,6.97-8.54,9.87-1.09,.96-2.18,1.92-3.27,2.87-1.94,1.7-3.73,3.53-4.74,6.03-2.02-2.04-3.36-4.32-3.36-7.23,0-3.81,1.72-6.85,4.31-9.46,2-2.02,4.49-3.32,6.98-4.6,1.96-1.01,3.94-2,5.88-3.05,2.05-1.11,3.77-2.66,5.47-4.23,.69-.64,1.38-1.26,2.07-1.9,.27,0,.55,0,.82,0Z"/><path class="cls-1" d="M22.53,81.89c.68-1.5,1.84-2.43,3.18-3.17,.14-.08,.28-.14,.42-.21,.6-.27,1.02-.52,1.13-1.37,.17-1.33,1.27-2.02,2.5-2.35,.57-.15,.82-.37,1.01-.95,.64-2,2.14-3.25,4.01-4.03,3.1-1.3,6.17-1.18,9.16,.4,.29,.15,.47,.12,.73-.06,3.09-2.11,6.43-2.36,9.91-1.21,.46,.15,.83,.14,1.28,0,3.74-1.2,7.26-.87,10.41,1.64,.52,.42,.94,.99,1.34,1.54,.23,.33,.45,.44,.85,.45,1.78,.05,3.44,.47,4.79,1.74,.74,.69,1.25,1.52,1.34,2.53,.05,.48,.28,.64,.69,.78,1.71,.6,3.35,1.34,4.62,2.69,.42,.45,.74,.99,1.19,1.59H22.53Z"/></g></g></g></svg>