<?xml version="1.0" encoding="UTF-8"?><svg id="Capa_2" xmlns="http://www.w3.org/2000/svg" viewBox="0 0 70.75 77.4"><defs><style>.cls-1{fill:#fff;}</style></defs><g id="Capa_3"><g><path class="cls-1" d="M70.75,25.92c-.08,4.73-1.34,8.35-3.25,11.76-.44,.79-.37,1.34,.04,2.09,2.01,3.71,3.39,7.61,3.16,11.91-.28,5.35-2.87,9.26-7.55,11.8-3.42,1.86-7.15,2.45-10.98,2.55-.78,.02-1.18,.28-1.57,.93-1.61,2.7-3.57,5.13-6.07,7.07-5.98,4.65-13.15,4.47-18.9-.47-2.19-1.88-3.99-4.08-5.45-6.56-.41-.69-.84-.95-1.65-.97-3.9-.11-7.69-.74-11.15-2.67C1.87,60.27-.82,54.54,.22,48.3c.51-3.05,1.52-5.91,3.05-8.58,.45-.79,.39-1.34-.02-2.09C1.53,34.52,.33,31.23,.09,27.64c-.42-6.48,2.82-11.74,8.8-14.34,3.1-1.35,6.37-1.85,9.71-1.93,.78-.02,1.18-.28,1.57-.93,1.73-2.91,3.87-5.49,6.63-7.5,5.63-4.08,12.33-3.9,17.79,.45,2.5,2,4.49,4.43,6.1,7.17,.33,.56,.68,.77,1.34,.79,3.93,.11,7.77,.7,11.26,2.64,4.96,2.76,7.41,7.03,7.46,11.92Zm-53.08,13.47c.28,2.96,.53,5.46,.73,7.97,.06,.74,.35,1.23,.93,1.67,4.74,3.65,9.87,6.61,15.42,8.82,.38,.15,.94,.14,1.32-.01,5.61-2.25,10.81-5.23,15.55-8.99,.33-.26,.62-.73,.68-1.14,.89-6.02,.86-12.05,0-18.07-.05-.38-.33-.82-.64-1.06-4.74-3.76-9.93-6.75-15.55-8.99-.42-.17-1.01-.19-1.42-.03-5.61,2.25-10.82,5.22-15.54,8.99-.35,.28-.66,.8-.7,1.24-.32,3.34-.56,6.69-.79,9.6Zm28.3,26.34c-.39-.1-.58-.16-.77-.21-2.86-.69-5.75-1.32-8.58-2.1-.89-.25-1.63-.23-2.51,.02-2.58,.73-5.19,1.34-7.79,1.99-.46,.11-.93,.17-1.49,.28,1.54,2.29,3.24,4.17,5.45,5.53,1.94,1.19,4.04,1.81,6.34,1.44,4.26-.69,6.9-3.57,9.36-6.96Zm0-54.13c-2.91-3.83-5.97-7.27-11.19-6.94-4.61,.3-7.4,3.43-9.95,6.95,2.29,.52,4.48,.79,6.51,1.53,2.73,1,5.27,1.07,8.02,.02,2.04-.78,4.28-1.04,6.62-1.57ZM6.64,34.28c1.84-1.95,3.43-3.93,5.33-5.56,1.7-1.46,2.63-3.09,3.07-5.27,.5-2.48,1.38-4.88,2.1-7.31-3.7-.42-9.05,1.99-10.98,5.11-2.73,4.4-1.35,8.68,.49,13.02Zm57.35-.04c2.25-3.77,3-9.33,.78-12.87-2.06-3.3-7.16-5.36-11.22-5.18,.07,.23,.15,.45,.21,.67,.86,2.96,1.7,5.92,2.58,8.87,.14,.45,.38,.93,.7,1.26,1.5,1.54,3.07,3,4.57,4.54,.83,.85,1.58,1.8,2.38,2.72Zm-10.23,27c4.23,.05,9.25-2.07,11.23-5.59,2.02-3.59,1.04-9.29-.91-12.3-2.44,2.43-4.92,4.88-7.38,7.34-.16,.16-.26,.39-.32,.61-.88,3.3-1.74,6.59-2.63,9.94ZM6.68,43.01c-1.92,4.53-3.35,8.93-.39,13.3,2.57,3.79,6.66,4.62,11.02,5.07-.41-1.19-.79-2.19-1.11-3.2-.34-1.05-.78-2.1-.91-3.18-.37-2.9-1.58-5.23-4-6.95-.81-.57-1.42-1.42-2.1-2.17-.8-.89-1.57-1.81-2.5-2.87Zm13.67,12.56c-.08,.04-.15,.07-.23,.11,.69,1.76,1.37,3.52,2.08,5.28,.06,.15,.37,.33,.53,.3,1.9-.27,3.8-.58,5.92-.91-2.94-1.69-5.62-3.24-8.3-4.78Zm30.34,.05c-.07-.02-.15-.05-.22-.07-2.69,1.56-5.38,3.11-8.32,4.81,2.09,.33,3.94,.64,5.79,.91,.19,.03,.53-.07,.59-.2,.74-1.81,1.45-3.63,2.16-5.45ZM28.65,17.04c-2.13-.33-4.03-.64-5.94-.9-.18-.02-.51,.28-.61,.5-.44,.98-.83,1.97-1.21,2.97-.27,.72-.47,1.46-.75,2.33,2.88-1.66,5.56-3.21,8.5-4.9Zm22.05,4.93c-.52-1.45-.94-2.7-1.41-3.94-.76-1.98-.77-2.01-2.88-1.72-1.35,.19-2.68,.49-4.18,.78,2.89,1.66,5.55,3.19,8.47,4.88Zm6.79,21.35c.07,.06,.13,.12,.2,.18,1.2-1.51,2.41-3,3.57-4.54,.12-.15-.03-.63-.2-.85-.83-1.09-1.7-2.16-2.58-3.21-.28-.33-.61-.62-.99-.99v9.42ZM13.3,34.08s-.13-.03-.16,0c-1.21,1.43-2.41,2.86-3.59,4.31-.11,.13-.12,.48-.03,.61,1.18,1.52,2.39,3.01,3.59,4.51,.06-.05,.12-.09,.19-.14v-9.29Z"/><path class="cls-1" d="M35.39,32.6c2.64-2.85,5.47-3.54,8.36-2.09,3.6,1.8,4.82,6.55,2.41,10.04-.89,1.3-2.15,2.38-3.36,3.43-2.13,1.85-4.35,3.58-6.52,5.38-.58,.48-1.12,.55-1.71,.07-2.54-2.09-5.09-4.16-7.62-6.26-1.95-1.62-3.34-3.53-3.53-6.19-.2-2.81,1.36-5.5,3.98-6.63,2.69-1.16,5.57-.5,7.49,1.7,.15,.17,.31,.34,.51,.56Z"/></g></g></svg>