<?xml version="1.0" encoding="UTF-8"?><svg id="Capa_2" xmlns="http://www.w3.org/2000/svg" viewBox="0 0 82.9 82.9"><defs><style>.cls-1{fill:#fff;}</style></defs><g id="Capa_3"><g><path class="cls-1" d="M41.45,82.9C18.59,82.9,0,64.31,0,41.45S18.59,0,41.45,0s41.45,18.6,41.45,41.45-18.6,41.45-41.45,41.45Zm0-80.24C20.06,2.66,2.66,20.06,2.66,41.45s17.4,38.79,38.79,38.79,38.79-17.4,38.79-38.79S62.84,2.66,41.45,2.66Z"/><g><path class="cls-1" d="M19.95,45.6c-.78-.28-1.62-.57-2.47-.87V28.07c1.12,.38,2.18,.73,3.24,1.1,.7,.24,1.38,.51,2.09,.72,1.45,.45,2.8,.24,4.14-.54,1.91-1.1,3.87-2.12,5.85-3.08,1.66-.81,3.42-.95,5.16-.23,.65,.27,1.23,.72,1.96,1.15-2.22,1.32-4.28,2.5-6.28,3.76-2.01,1.27-2.81,3.46-2.13,5.56,.84,2.57,3.49,3.93,6.01,2.95,1.71-.66,3.36-1.5,5.03-2.26,1.72-.78,2.77-.6,4.08,.71,2.89,2.89,5.78,5.78,8.66,8.68,1.02,1.03,1.09,2.31,.21,3.21-.88,.9-2.16,.83-3.2-.18-.84-.82-1.67-1.65-2.51-2.46-.25-.25-.55-.45-.82-.68-.08,.06-.15,.11-.23,.17,.14,.25,.25,.53,.44,.74,.84,.91,1.71,1.8,2.55,2.71,1.03,1.11,1.07,2.41,.11,3.3-.94,.87-2.13,.75-3.21-.31-1.05-1.04-2.09-2.08-3.14-3.11-.22-.22-.48-.41-.72-.61-.07,.06-.14,.12-.21,.18,.19,.28,.35,.59,.57,.83,.88,.96,1.81,1.89,2.68,2.86,.86,.95,.8,2.25-.08,3.06-.87,.8-2.06,.75-2.97-.14-1-.99-1.97-2.01-2.97-3-.26-.26-.58-.48-.87-.72l-.23,.21c.19,.28,.34,.58,.57,.82,.68,.74,1.4,1.44,2.09,2.17,1.01,1.09,1.05,2.3,.13,3.2-.92,.9-2.15,.8-3.19-.25-.55-.55-.9-1.08-.88-1.98,.03-1.9-.96-3.27-2.64-4.18-.36-.2-.61-.61-.9-.94-.08-.1-.12-.24-.17-.36-.56-1.28-2.03-1.65-2.76-2.62-.79-1.04-1.34-2.2-2.6-2.79-.27-.13-.55-.39-.66-.65-.84-1.92-2.3-2.93-4.38-2.96-2.15-.03-3.81,.87-4.86,2.79-.11,.2-.22,.41-.33,.61-.01,.02-.05,.03-.16,.1Z"/><path class="cls-1" d="M65.43,29.7v14.61c-1.69,.29-3.36,.61-5.04,.86-1.25,.18-2.27-.3-3.16-1.19-3.08-3.08-6.18-6.14-9.27-9.2-1.42-1.4-2.45-1.59-4.24-.69-2.06,1.04-4.1,2.12-6.15,3.19-1.66,.87-3.28,.47-4.06-1.02-.75-1.43-.17-2.98,1.41-3.87,3.64-2.05,7.32-4.06,10.91-6.2,1.86-1.11,3.44-.98,5.02,.41,1.48,1.31,3.02,2.55,4.51,3.85,.9,.79,1.88,1.04,3.06,.77,2.31-.54,4.63-1.01,7.01-1.52Z"/><path class="cls-1" d="M30.86,50.72c2.55,.24,3.21,.97,3.05,3.46,.22,.01,.43,.04,.65,.04,1.98,0,3.19,1.72,2.52,3.58-.51,1.42-2.56,2.63-4.05,2.41-1.55-.24-2.29-1.46-1.74-2.93,.09-.25,.2-.49,.24-.6-.99-.14-2.12-.03-2.94-.48-1.17-.65-.68-1.86-.28-2.96-1.04,.04-2.08,.63-2.97-.29-.89-.92-.58-1.89-.1-3-.5,.1-.87,.2-1.25,.26-1.04,.17-1.89-.31-2.25-1.25-.78-2.04,1.56-5,3.72-4.7,1.52,.21,2.21,1.19,2.27,3.21,2.57,.34,3.09,.88,3.12,3.27Z"/></g></g></g></svg>