<?xml version="1.0" encoding="UTF-8"?><svg id="Capa_2" xmlns="http://www.w3.org/2000/svg" viewBox="0 0 65.7 73.12"><defs><style>.cls-1{fill:#fff;}</style></defs><g id="Capa_3"><g><path class="cls-1" d="M35.77,73.09c0-3.99-.23-7.9,.07-11.78,.26-3.45,2.11-6.33,4.53-8.78,3.11-3.14,6.24-6.26,9.38-9.36,1.76-1.74,3.85-1.9,5.26-.45,1.45,1.5,1.27,3.43-.53,5.26-1.31,1.33-2.7,2.58-3.92,4-.35,.41-.21,1.25-.29,1.89,.59-.13,1.35-.07,1.73-.43,1.78-1.64,3.58-3.3,5.12-5.16,.68-.82,1.13-2.12,1.11-3.19-.1-3.98-.49-7.94-.68-11.92-.12-2.53,1.11-4.06,3.19-4.21,2.1-.15,3.61,1.39,3.81,3.93,.38,4.9,.73,9.8,1.13,14.69,.23,2.92-.69,5.35-2.78,7.4-3.29,3.23-6.48,6.55-9.8,9.74-1.07,1.03-1.6,2.08-1.48,3.58,.12,1.54,.03,3.1,.03,4.78h-15.86Z"/><path class="cls-1" d="M30.21,73.12H14.04c0-1.82,.13-3.56-.05-5.27-.1-.95-.47-2.07-1.11-2.74-3.35-3.51-6.83-6.91-10.27-10.34C.68,52.86-.17,50.55,.03,47.85c.37-5.03,.74-10.05,1.13-15.08,.16-2.09,1.17-3.37,2.84-3.67,1.74-.31,3.1,.29,3.83,1.92,.29,.64,.36,1.45,.32,2.17-.21,3.91-.63,7.83-.66,11.74,0,1.27,.69,2.74,1.5,3.77,1.34,1.7,2.98,3.18,4.6,4.63,.43,.38,1.23,.35,1.86,.51-.15-.69-.08-1.56-.48-2.03-1.25-1.46-2.71-2.74-4.04-4.14-1.55-1.63-1.6-3.59-.21-4.99,1.34-1.35,3.41-1.29,4.99,.26,3.33,3.27,6.68,6.54,9.91,9.9,3.06,3.18,4.59,7.04,4.6,11.48,0,2.86,0,5.73,0,8.79Z"/><path class="cls-1" d="M29.15,32.05c0-1.75-.03-3.29,0-4.83,.05-2.39,1.6-4.06,3.72-4.04,2.11,.02,3.61,1.69,3.66,4.1,.03,1.49,0,2.98,0,4.78,1.63,0,3.15-.02,4.67,0,2.53,.04,4.05,1.41,4.05,3.62,0,2.2-1.51,3.57-4.05,3.63-1.48,.03-2.96,0-4.66,0,0,1.6,0,3.01,0,4.42,0,3.01-1.41,4.82-3.73,4.79-2.3-.03-3.65-1.83-3.66-4.87,0-1.36,0-2.72,0-4.34-1.62,0-3.09,.02-4.56,0-2.66-.04-4.21-1.42-4.18-3.69,.03-2.2,1.54-3.52,4.11-3.56,1.48-.02,2.95,0,4.62,0Z"/><path class="cls-1" d="M18.62,17.85c1.47,0,2.7-.05,3.93,.01,1.61,.08,2.84,1.3,2.68,2.72-.18,1.53-1.04,2.51-2.69,2.54-1.23,.02-2.46,0-3.92,0,0,1.36,.03,2.58,0,3.8-.06,1.66-1.11,2.81-2.56,2.89-1.45,.08-2.66-1-2.81-2.65-.11-1.23-.02-2.47-.02-4.02-1.36,0-2.57,.03-3.78,0-1.75-.06-2.75-1.02-2.77-2.59-.03-1.59,.94-2.58,2.67-2.7,.62-.04,1.24-.02,1.86-.02,.55,0,1.1,0,1.99,0,0-1.28-.04-2.43,0-3.58,.09-1.96,1.14-3.09,2.78-3.05,1.6,.04,2.6,1.23,2.64,3.18,.02,1.05,0,2.11,0,3.47Z"/><path class="cls-1" d="M52.24,23.83c0,1.25,.03,2.19,0,3.12-.06,1.43-.77,2.42-2.24,2.49-1.6,.07-2.34-.98-2.46-2.47-.07-.97-.01-1.96-.01-3.14-1.18,0-2.16,.04-3.14,0-1.43-.07-2.43-.81-2.48-2.26-.05-1.57,.98-2.35,2.49-2.44,.98-.06,1.96-.01,3.14-.01,0-1.18-.06-2.17,.01-3.14,.11-1.49,.86-2.54,2.46-2.47,1.47,.06,2.19,1.05,2.24,2.49,.03,.93,0,1.86,0,3.11,1.03,0,2-.02,2.96,0,1.49,.04,2.54,.67,2.66,2.28,.11,1.44-.94,2.38-2.67,2.45-.92,.04-1.84,0-2.95,0Z"/><path class="cls-1" d="M33.17,10.32c-1.3,0-2.29,.06-3.28-.01-1.42-.1-2.42-.83-2.41-2.32,.02-1.56,.99-2.34,2.54-2.37,.98-.02,1.96,0,3.15,0,0-1.24-.03-2.29,0-3.33,.06-1.49,.87-2.33,2.36-2.28,1.41,.04,2.13,.89,2.18,2.28,.03,1.04,0,2.09,0,3.33,1.24,0,2.29-.05,3.32,.01,1.35,.07,2.25,.77,2.34,2.17,.1,1.51-.79,2.33-2.21,2.48-1.04,.11-2.1,.02-3.45,.02,0,1.17,0,2.2,0,3.23-.01,1.51-.84,2.4-2.27,2.4-1.44,0-2.26-.9-2.28-2.4-.01-.98,0-1.97,0-3.23Z"/></g></g></svg>