<?xml version="1.0" encoding="UTF-8"?><svg id="Capa_2" xmlns="http://www.w3.org/2000/svg" viewBox="0 0 82.9 82.9"><defs><style>.cls-1{fill:#fff;}</style></defs><g id="Capa_3"><g><path class="cls-1" d="M41.45,82.9C18.59,82.9,0,64.31,0,41.45S18.59,0,41.45,0s41.45,18.59,41.45,41.45-18.6,41.45-41.45,41.45Zm0-80.24C20.06,2.66,2.66,20.06,2.66,41.45s17.4,38.79,38.79,38.79,38.79-17.4,38.79-38.79S62.84,2.66,41.45,2.66Z"/><g><path class="cls-1" d="M28.71,34.61l-12.44-12.44c-.41-.41-1.08-.41-1.49,0-.41,.41-.41,1.08,0,1.49l12.13,12.13v1.45c0,.58,.47,1.05,1.05,1.06h0c.58,0,1.05-.47,1.05-1.05v-1.89c0-.28-.11-.55-.31-.75Z"/><path class="cls-1" d="M38.28,26.91h-2.49s-12.13-12.13-12.13-12.13c-.41-.41-1.08-.41-1.49,0-.41,.41-.41,1.08,0,1.49l12.44,12.44c.2,.2,.47,.31,.75,.31h2.93c.58,0,1.05-.48,1.05-1.06,0-.58-.47-1.05-1.05-1.05Z"/><path class="cls-1" d="M60.74,14.78c-.2-.2-.47-.31-.75-.31s-.55,.11-.75,.31c-.2,.2-.31,.47-.31,.75s.11,.55,.31,.75c.2,.2,.47,.31,.75,.31s.55-.11,.75-.31c.2-.2,.31-.47,.31-.75s-.11-.55-.31-.75Z"/><path class="cls-1" d="M57.65,17.87c-.41-.41-1.08-.41-1.49,0l-9.04,9.04h-1.45s-.01,0-.02,0c-2.79,0-5.41,1.09-7.38,3.06l-.95,.95c-.41,.41-.41,1.08,0,1.49,.21,.21,.48,.31,.75,.31s.54-.1,.75-.31l.95-.95c1.57-1.57,3.67-2.44,5.89-2.44h1.9s0,0,0,0c.28,0,.55-.11,.75-.31l9.35-9.35c.41-.41,.41-1.08,0-1.49Z"/><path class="cls-1" d="M68.12,22.17c-.41-.41-1.08-.41-1.49,0l-12.44,12.44c-.2,.2-.31,.47-.31,.75v2.92c0,.58,.48,1.05,1.06,1.05h0c.58,0,1.05-.47,1.05-1.06v-2.49s12.13-12.13,12.13-12.13c.41-.41,.41-1.08,0-1.49Z"/><path class="cls-1" d="M68.12,59.25l-12.13-12.13v-1.45c0-1.38-.26-2.74-.79-4.01-.22-.54-.84-.79-1.38-.57-.54,.22-.79,.84-.57,1.38,.42,1.02,.64,2.1,.64,3.2v1.89c0,.28,.11,.55,.31,.75l12.44,12.44c.21,.21,.48,.31,.75,.31s.54-.1,.75-.31c.41-.41,.41-1.08,0-1.49Z"/><path class="cls-1" d="M60.74,66.63l-12.44-12.44c-.2-.2-.47-.31-.75-.31h-2.93c-.58,0-1.05,.48-1.05,1.06,0,.58,.47,1.05,1.05,1.05h2.49s12.13,12.13,12.13,12.13c.21,.21,.48,.31,.75,.31s.54-.1,.75-.31c.41-.41,.41-1.08,0-1.49Z"/><path class="cls-1" d="M23.66,66.63c-.2-.2-.47-.31-.75-.31s-.55,.11-.75,.31c-.2,.2-.31,.47-.31,.75s.11,.55,.31,.75c.2,.2,.47,.31,.75,.31s.55-.11,.75-.31c.2-.2,.31-.47,.31-.75s-.11-.55-.31-.75Z"/><path class="cls-1" d="M52.16,41.21c-.24-.24-.51-.43-.8-.57,.25-.44,.38-.93,.38-1.45,0-.79-.31-1.54-.87-2.1-.25-.25-.54-.45-.85-.59,.53-1.11,.34-2.47-.57-3.39-.91-.91-2.28-1.11-3.39-.58-.14-.31-.34-.6-.6-.85-1.16-1.16-3.04-1.16-4.2,0l-4.21,4.21c-.08-.85-.52-1.66-1.27-2.19-.67-.47-1.48-.64-2.28-.49-.8,.15-1.49,.61-1.95,1.28l-2.89,4.31c-1.16,1.73-1.77,3.75-1.77,5.83v2.49s-12.13,12.13-12.13,12.13c-.41,.41-.41,1.08,0,1.49,.21,.21,.48,.31,.75,.31s.54-.1,.75-.31l12.44-12.44c.2-.2,.31-.47,.31-.75v-2.92c0-1.66,.48-3.27,1.41-4.65l2.89-4.31c.14-.2,.34-.34,.58-.38,.24-.04,.48,0,.68,.15,.39,.27,.5,.8,.25,1.21l-1.13,1.86c-.36,.59-.22,1.32,.32,1.74,.54,.42,1.28,.38,1.77-.11l6.96-6.96c.34-.34,.88-.34,1.22,0,.16,.16,.25,.38,.25,.61,0,.2-.07,.38-.18,.53l-4.12,4.13c-.41,.41-.41,1.08,0,1.49,.41,.41,1.08,.41,1.49,0l5.33-5.34c.34-.34,.88-.34,1.22,0,.34,.34,.34,.88,0,1.22l-5.33,5.33c-.41,.41-.41,1.08,0,1.49,.21,.21,.48,.31,.75,.31s.54-.1,.75-.31l4.13-4.13c.34-.27,.83-.24,1.14,.07,.16,.16,.25,.38,.25,.61s-.09,.45-.25,.61l-4.05,4.05c-.41,.41-.41,1.08,0,1.49,.21,.21,.48,.31,.75,.31s.54-.1,.75-.31l2.71-2.71c.34-.27,.83-.24,1.14,.07,.16,.16,.25,.38,.25,.61s-.09,.45-.25,.61l-7.53,7.53c-1.57,1.57-3.67,2.44-5.89,2.44h-1.9s0,0,0,0c-.28,0-.55,.11-.75,.31l-9.79,9.79c-.41,.41-.41,1.08,0,1.49,.21,.21,.48,.31,.75,.31s.54-.1,.75-.31l9.48-9.48h1.45s.01,0,.02,0c2.79,0,5.41-1.09,7.38-3.06l7.53-7.53c1.16-1.16,1.16-3.04,0-4.2Z"/></g></g></g></svg>