<?xml version="1.0" encoding="UTF-8"?><svg id="Capa_2" xmlns="http://www.w3.org/2000/svg" viewBox="0 0 60.97 64.05"><defs><style>.cls-1{fill:#fff;}</style></defs><g id="Capa_3"><g><path class="cls-1" d="M52.67,12.26c-1.48,3.15-3.45,5.87-5.75,8.35-7.45,8.03-16.13,14.23-26.64,17.61-5.11,1.64-10.28,3.09-15.44,4.57-1.68,.48-3.19-.42-3.52-1.95-.35-1.65,.55-3,2.32-3.36,6.89-1.39,13.57-3.41,19.89-6.52,9.28-4.57,17.14-10.8,22.84-19.56,.27-.42,.53-.86,.79-1.29,.04-.07,.06-.16,.1-.31-1.13-.51-2.25-1.04-3.38-1.53-.93-.4-1.5-1.03-1.51-2.08-.01-1.06,.56-1.72,1.47-2.11,3.13-1.32,6.26-2.64,9.4-3.92,1.16-.47,2.32,.04,2.74,1.23,1.18,3.34,2.32,6.69,3.47,10.04,.29,.85,.03,1.59-.59,2.18-.65,.62-1.45,.8-2.3,.42-1.27-.56-2.52-1.16-3.89-1.79Z"/><path class="cls-1" d="M54.39,40.77c0-6.51,0-13.03,0-19.54,0-2.01,.96-3.3,2.68-3.63,1.7-.33,3.38,.76,3.76,2.45,.08,.34,.12,.7,.12,1.05,0,13.11,.01,26.23,0,39.34,0,2.3-1.53,3.76-3.68,3.57-1.39-.12-2.62-1.27-2.82-2.65-.06-.44-.07-.89-.07-1.33,0-6.42,0-12.85,0-19.27Z"/><path class="cls-1" d="M47.22,47.57c0,4.32,.01,8.64,0,12.96-.01,2.19-1.43,3.59-3.47,3.5-1.8-.08-3.08-1.53-3.09-3.54-.02-2.81,0-5.62,0-8.44,0-5.77,0-11.54,0-17.32,0-2.24,1.43-3.72,3.45-3.64,1.64,.06,2.99,1.31,3.08,2.97,.08,1.56,.04,3.14,.04,4.7,0,2.93,0,5.86,0,8.79Z"/><path class="cls-1" d="M33.83,52.3c0,2.75,0,5.5,0,8.25,0,2.07-1.36,3.5-3.3,3.49-1.88-.01-3.25-1.45-3.25-3.46,0-5.56,0-11.12,0-16.68,0-2.04,1.41-3.52,3.32-3.5,1.87,.01,3.23,1.46,3.24,3.48,0,2.81,0,5.62,0,8.43Z"/><path class="cls-1" d="M20.11,55.47c0,1.74,.03,3.49,0,5.23-.04,1.69-1.18,3.06-2.68,3.3-1.67,.27-3.18-.6-3.7-2.18-.13-.41-.17-.87-.17-1.31-.01-3.37-.01-6.74,0-10.11,0-2.1,1.34-3.57,3.22-3.59,1.89-.03,3.32,1.51,3.34,3.6,.01,1.69,0,3.37,0,5.06Z"/><path class="cls-1" d="M.03,58.4c0-.86-.06-1.72,.01-2.57,.15-1.65,1.48-2.87,3.13-2.94,1.59-.07,3.15,1.11,3.28,2.75,.15,1.88,.15,3.78,0,5.66-.13,1.7-1.62,2.8-3.35,2.74-1.63-.06-2.94-1.29-3.07-2.97-.07-.88-.01-1.77-.01-2.66,0,0,0,0,0,0Z"/></g></g></svg>