<?xml version="1.0" encoding="UTF-8"?><svg id="Capa_2" xmlns="http://www.w3.org/2000/svg" viewBox="0 0 159.26 46.15"><defs><style>.cls-1{fill:#00b2e3;}</style></defs><g id="Capa_2-2"><g><path class="cls-1" d="M38.96,30.65c3.3,0,5.98-2.68,5.98-5.98s-2.68-5.98-5.98-5.98-5.98,2.68-5.98,5.98,2.68,5.98,5.98,5.98Zm-17.53,4.89c-2.15,0-3.89,1.74-3.89,3.89s1.74,3.89,3.89,3.89,3.89-1.74,3.89-3.89-1.74-3.89-3.89-3.89Zm30.06,3.41c-1.52,0-2.75,1.23-2.75,2.75s1.23,2.75,2.75,2.75,2.75-1.23,2.75-2.75-1.23-2.75-2.75-2.75Zm15.87-13.93c-.37-4.48-4.03-8.1-8.52-8.42-4.09-.29-7.67,2.1-9.16,5.58v.02s0,0-.01,0l-2.63,6.26c-1.28,3.05-3.81,5.4-6.95,6.44h0c-2.21,.74-4.65,.19-6.34-1.43-.68-.65-1.21-1.16-1.21-1.16-1.36-1.3-2.26-3-2.59-4.82-.11-.63-.16-1.27-.14-1.91l.27-6.96,.13-3.26h0c0-.09,0-.18,0-.28C30.21,6.41,22.86-.57,14.04,.04,6.59,.55,.55,6.59,.04,14.04c-.09,1.32-.01,2.59,.21,3.82,1.29,7.03,7.45,12.36,14.86,12.36,.34,0,6.63,.45,9.08,1.84l1.69,.96c1.65,.94,2.93,2.4,3.64,4.15l2.1,5.19h0c.54,2.18,2.51,3.8,4.86,3.8,1.6,0,3.02-.75,3.93-1.91,.75-.95,6.24-6.5,6.24-6.5,1.31-1.32,3.05-2.12,4.91-2.25l7.32-.5c3.82-.3,6.99-2.92,8.08-6.46,.27-.86,.42-1.78,.42-2.74,0-.26,0-.52-.03-.79Z"/><g><path class="cls-1" d="M77.93,36.19l1.02-2.28c1.26,1.01,3.27,1.74,5.21,1.74,2.46,0,3.5-.88,3.5-2.05,0-3.41-9.39-1.17-9.39-7.04,0-2.55,2.03-4.72,6.36-4.72,1.9,0,3.88,.5,5.26,1.4l-.93,2.28c-1.42-.84-2.98-1.24-4.35-1.24-2.44,0-3.43,.95-3.43,2.14,0,3.36,9.36,1.17,9.36,6.97,0,2.53-2.05,4.69-6.39,4.69-2.46,0-4.92-.77-6.23-1.89Z"/><path class="cls-1" d="M105.59,32.74h-9.45c.34,1.76,1.81,2.89,3.9,2.89,1.35,0,2.41-.43,3.27-1.31l1.51,1.74c-1.08,1.29-2.78,1.96-4.85,1.96-4.04,0-6.66-2.59-6.66-6.18s2.64-6.16,6.23-6.16,6.09,2.46,6.09,6.23c0,.23-.02,.56-.04,.84Zm-9.48-1.87h6.84c-.23-1.74-1.56-2.93-3.41-2.93s-3.16,1.17-3.43,2.93Z"/><path class="cls-1" d="M116.45,25.67v2.69c-.25-.04-.45-.07-.65-.07-2.14,0-3.5,1.26-3.5,3.72v5.84h-2.82v-12.05h2.69v1.76c.81-1.26,2.28-1.9,4.29-1.9Z"/><path class="cls-1" d="M134.91,22.06l-6.88,15.8h-2.89l-6.9-15.8h3.18l5.26,12.19,5.3-12.19h2.93Z"/><path class="cls-1" d="M137.71,22.06h2.93v15.8h-2.93v-15.8Z"/><path class="cls-1" d="M159.26,27.68c0,3.48-2.57,5.62-6.72,5.62h-3.57v4.56h-2.93v-15.8h6.5c4.15,0,6.72,2.12,6.72,5.62Zm-2.96,0c0-1.99-1.33-3.14-3.9-3.14h-3.43v6.27h3.43c2.57,0,3.9-1.15,3.9-3.14Z"/></g></g></g></svg>