<?xml version="1.0" encoding="UTF-8"?><svg id="Capa_2" xmlns="http://www.w3.org/2000/svg" viewBox="0 0 39.84 55.09"><defs><style>.cls-1{fill:#7441a1;}</style></defs><g id="Capa_3"><g><path class="cls-1" d="M29.37,37.38H10.47c-1.71,0-3.1-1.39-3.1-3.1s1.39-3.1,3.1-3.1H29.37c1.71,0,3.1,1.39,3.1,3.1s-1.39,3.1-3.1,3.1Zm-18.9-4.11c-.55,0-1.01,.45-1.01,1s.45,1.01,1.01,1.01H29.37c.55,0,1.01-.45,1.01-1.01s-.45-1-1.01-1H10.47Z"/><path class="cls-1" d="M26.03,55.09H13.81c-1.7,0-3.08-1.27-3.23-2.97l-1.34-15.73c-.03-.31,.09-.62,.31-.84,.22-.22,.53-.33,.84-.3,.01,0,.09,.01,.11,.01H29.34s.11-.01,.11-.01c.31-.03,.62,.08,.84,.3,.22,.22,.33,.53,.31,.84l-1.34,15.73c-.14,1.69-1.53,2.97-3.23,2.97Zm-14.6-17.71l1.24,14.57c.05,.6,.54,1.04,1.14,1.04h12.22c.6,0,1.09-.45,1.14-1.04l1.24-14.57H11.43Z"/><path class="cls-1" d="M23.77,23.37c-1.31,0-2.73-.33-4.26-.98-.36-.16-.61-.5-.63-.89,0-.13-.19-3.24,2.25-5.73,2.1-2.14,5.42-3.12,9.86-2.92,.29,.01,.56,.15,.75,.37,.19,.22,.28,.51,.24,.8-.03,.25-.73,6.11-4.71,8.43-1.05,.61-2.22,.92-3.5,.92Zm-2.78-2.65c2.07,.75,3.83,.72,5.22-.09,2.17-1.26,3.11-4.11,3.47-5.71-3.21,.02-5.58,.8-7.06,2.31-1.21,1.24-1.54,2.68-1.63,3.49Z"/><path class="cls-1" d="M16.07,23.37c-1.27,0-2.44-.31-3.5-.92-3.98-2.32-4.68-8.18-4.71-8.43-.03-.29,.06-.58,.24-.8,.19-.22,.46-.35,.75-.37,4.44-.21,7.76,.77,9.86,2.92,2.44,2.49,2.26,5.6,2.25,5.73-.03,.39-.27,.74-.63,.89-1.53,.65-2.95,.98-4.26,.98Zm-5.91-8.44c.37,1.6,1.31,4.46,3.48,5.71,1.39,.81,3.14,.83,5.21,.09-.09-.82-.42-2.27-1.65-3.51-1.49-1.5-3.85-2.27-7.04-2.29Z"/><rect class="cls-1" x="18.87" y="11.95" width="2.1" height="20.27"/><path class="cls-1" d="M19.92,13.47c-.18,0-.36-.05-.52-.14-2.08-1.19-3.28-2.78-3.57-4.74C15.23,4.52,19,.48,19.16,.31c.4-.42,1.13-.42,1.52,0,.16,.17,3.93,4.2,3.33,8.28-.29,1.95-1.49,3.54-3.57,4.74-.16,.09-.34,.14-.52,.14Zm0-10.79c-.92,1.24-2.33,3.51-2.02,5.61,.17,1.14,.83,2.09,2.01,2.89,1.18-.8,1.84-1.75,2.01-2.89,.29-1.98-1-4.25-2.01-5.61Z"/><path class="cls-1" d="M38.79,55.09H1.05c-.58,0-1.05-.47-1.05-1.05s.47-1.05,1.05-1.05H38.79c.58,0,1.05,.47,1.05,1.05s-.47,1.05-1.05,1.05Z"/></g></g></svg>