<?xml version="1.0" encoding="UTF-8"?><svg id="Capa_2" xmlns="http://www.w3.org/2000/svg" viewBox="0 0 64.45 58.53"><defs><style>.cls-1{fill:#fff;}</style></defs><g id="Capa_3"><g><path class="cls-1" d="M.06,39.38c7.45,3.72,15.28,5.35,23.57,4.69-.16-1.01-.3-1.96-.44-2.89-.65,0-1.31-.02-1.97,0-6.13,.17-12.03-.95-17.7-3.26-1.08-.44-2.14-.95-3.2-1.45-.13-.06-.28-.26-.29-.4-.02-2.47-.01-4.95,0-7.42,0-.04,.02-.08,.03-.16,.1,.04,.19,.06,.27,.1,4.54,2.27,9.33,3.74,14.36,4.38,3.1,.39,6.2,.44,9.31,.15,.27-.03,.39-.13,.49-.38,.32-.77,.68-1.52,1.03-2.27-1.39,.09-2.79,.22-4.19,.27-7.34,.22-14.29-1.38-20.88-4.61-.34-.16-.44-.35-.44-.72,.02-2.27,0-4.54,0-6.82,0-.17,0-.34,0-.54,13.37,6.43,26.68,6.43,40.05,0v2.88c.46-.03,.86-.08,1.26-.07,2.18,.04,4.38-.1,6.54,.17,6.14,.74,10.85,3.85,13.98,9.16,6.55,11.12,.13,25.39-12.52,27.95-1.69,.34-3.41,.46-5.14,.31-.27-.02-.55-.02-.82,0-6.27,.36-11.5-1.82-15.66-6.51-.3-.33-.56-.42-.99-.35-8.26,1.28-16.23,.23-23.91-3.01-1.71-.72-2.68-2.16-2.78-4.04-.08-1.63-.02-3.27-.02-4.9,0-.07,.02-.14,.04-.26Zm25.64,.29c0,9,7.28,16.28,16.28,16.29,8.97,0,16.26-7.28,16.26-16.26,0-9.02-7.24-16.27-16.27-16.29-8.96-.02-16.28,7.29-16.28,16.25Z"/><path class="cls-1" d="M40.08,11.35c0,1.26,0,2.52,0,3.78,0,.25-.07,.39-.3,.5-4.29,2.13-8.8,3.57-13.55,4.26-3.7,.54-7.41,.59-11.12,.16-5.21-.6-10.15-2.11-14.83-4.45-.13-.06-.25-.28-.26-.42-.02-2.52-.02-5.04,0-7.55,0-1.14,.58-2.01,1.37-2.76,1.15-1.12,2.55-1.84,4.02-2.43C8.18,1.31,11.08,.72,14.03,.36c3.4-.41,6.81-.47,10.22-.18,4.01,.34,7.94,1.04,11.62,2.78,1.1,.52,2.13,1.17,2.99,2.05,.81,.83,1.27,1.8,1.23,3-.04,1.11,0,2.23,0,3.34Zm-20.3,.87c3.5-.02,6.73-.29,9.9-1.02,1.92-.44,3.81-1,5.51-2.01,.36-.21,.7-.59,.87-.97,.37-.81,0-1.67-.86-2.15-1.51-.86-3.13-1.42-4.81-1.82-6.43-1.54-12.89-1.58-19.36-.31-2.13,.42-4.21,1.04-6.12,2.12-1.36,.77-1.37,2.41,0,3.15,.89,.47,1.82,.89,2.77,1.21,4,1.37,8.15,1.75,12.09,1.8Z"/><path class="cls-1" d="M39.71,26.02h3.68v3.06c1.65,.18,3.18,.63,4.58,1.54-.47,1.18-.95,2.35-1.44,3.57-.42-.22-.81-.43-1.21-.62-1.42-.68-2.91-.95-4.47-.66-1.21,.23-1.84,1.1-1.64,2.15,.09,.49,.39,.86,.8,1.08,.92,.49,1.87,.91,2.79,1.37,1.06,.53,2.18,.97,3.14,1.65,2.8,1.97,3.39,5.6,1.42,8.3-.93,1.28-2.21,2.07-3.72,2.47-.35,.09-.45,.23-.44,.58,.03,.97,0,1.93,0,2.93h-3.73v-3.11c-.95-.22-1.88-.36-2.76-.66-.88-.3-1.7-.76-2.59-1.16,.5-1.31,.95-2.5,1.43-3.76,.29,.18,.54,.34,.79,.49,1.6,.97,3.32,1.44,5.18,1.19,.54-.07,1.1-.29,1.56-.59,1.04-.68,1.2-2.1,.32-2.98-.49-.49-1.12-.87-1.74-1.18-.89-.44-1.84-.76-2.75-1.16-1.01-.45-1.95-1.01-2.74-1.8-2.19-2.19-1.99-5.83,.43-7.9,.81-.69,1.73-1.15,2.75-1.41,.27-.07,.37-.18,.36-.47-.02-.97,0-1.93,0-2.93Z"/><path class="cls-1" d="M53.3,39.72c-.01,.91-.75,1.63-1.67,1.62-.91,0-1.64-.75-1.64-1.67,0-.93,.77-1.66,1.7-1.65,.91,.02,1.62,.77,1.61,1.69Z"/><path class="cls-1" d="M31.8,38.03c.91,0,1.66,.73,1.67,1.64,.01,.91-.72,1.66-1.63,1.67-.94,.01-1.68-.71-1.68-1.66,0-.93,.72-1.65,1.64-1.65Z"/></g></g></svg>