<?xml version="1.0" encoding="UTF-8"?><svg id="Capa_2" xmlns="http://www.w3.org/2000/svg" viewBox="0 0 67.93 67.92"><defs><style>.cls-1{fill:#fff;}</style></defs><g id="Capa_3"><path class="cls-1" d="M62.57,32.92c-.13-.38-.23-.77-.38-1.14-1.02-2.51-2.73-4.39-5.14-5.63-.88-.46-1.23-.96-1.14-1.67,.11-.86,.69-1.25,1.47-1.4,1.09-.21,2.18-.39,3.35-.6-.19-.1-.33-.21-.49-.27-1.65-.62-3.34-.79-5.08-.42-1.65,.35-2.4-.38-2.13-2.06,.18-1.13,.04-2.49-.35-3.24-.88,.73-1.58,1.58-2.04,2.62-.27,.62-.65,1.08-1.37,1.14-.75,.06-1.22-.34-1.6-.94-.48-.76-1-1.5-1.49-2.25-.55-.85-.43-1.76,.29-2.25,.73-.49,1.6-.27,2.2,.55,.11,.15,.23,.3,.28,.36,1.15-.95,2.22-1.92,3.39-2.77,1.18-.86,2.21-.55,2.68,.83,.52,1.52,.86,3.11,1.31,4.75,.75,.07,1.69,.09,2.61,.25,3.64,.63,6.44,2.58,8.58,5.54,.5,.69,.49,1.46,.02,2.01-.46,.53-1.16,.66-1.93,.3-1.22-.56-2.49-.91-4.01-1.02,.24,.28,.37,.44,.51,.59,3.04,3.29,4.26,7.16,3.68,11.6-.13,.99-.55,1.5-1.28,1.65-.71,.14-1.28-.22-1.78-1.08-1.89-3.22-4.49-5.52-8.2-6.38-1.6-.37-3.19-.24-4.72,.36-.26,.1-.57,.34-.66,.59-2.5,6.42-4.98,12.85-7.46,19.28-.02,.06-.02,.14-.02,.22,1.39,.26,2.78,.45,4.14,.8,6.6,1.68,11.85,5.33,15.71,10.95,.37,.53,.73,.79,1.4,.76,1.09-.06,2.19-.03,3.28-.01,1.09,.01,1.72,.61,1.7,1.56-.02,.92-.63,1.44-1.72,1.44-21.48,0-42.95,0-64.43,0-1.15,0-1.76-.52-1.77-1.47,0-.97,.64-1.53,1.8-1.53,4.74,0,9.47-.01,14.21,.01,.57,0,.9-.18,1.23-.66,4.65-6.69,11.01-10.59,19.1-11.66,.36-.05,.71-.1,1.18-.17-.31-1.14-.59-2.23-.9-3.31-1.68-5.8-3.8-11.42-7.03-16.57-1.23-1.96-2.63-3.78-4.3-5.4-.5-.48-1.01-.56-1.65-.47-3.34,.49-5.92,2.22-7.86,4.92-2.11,2.93-3.05,6.26-3.12,9.84-.01,.67-.23,1.27-.87,1.45-.46,.13-1.02,.01-1.5-.13-.26-.08-.45-.42-.63-.68-3.36-4.75-4.11-9.9-2.34-15.44,.09-.27,.18-.53,.33-.96-2.02,1.02-3.52,2.35-4.81,3.96-.27,.34-.68,.67-1.08,.76-1.16,.26-1.92-.64-1.72-2.01,.43-2.97,1.51-5.66,3.37-8.03,1.58-2.01,3.55-3.51,5.94-4.54-.08-.2-.13-.37-.21-.54-.9-1.86-1.4-3.83-1.52-5.88-.08-1.29,.55-1.91,1.84-1.83,1.98,.12,3.88,.59,5.68,1.44,.22,.1,.44,.2,.7,.32,.2-.42,.38-.81,.59-1.19C19.08,3.37,23.25,.82,28.59,.03c.92-.14,1.54,.21,1.8,.88,.28,.71,.04,1.37-.71,1.95-1.8,1.4-3.29,3.21-3.88,4.74,.76-.23,1.45-.48,2.17-.66,5.17-1.24,9.92-.36,14.23,2.79,.8,.59,1.04,1.14,.82,1.84-.23,.75-.73,1.05-1.76,1.09-4.33,.17-8.2,1.48-11.35,4.56-1.81,1.78-2.89,3.94-3.21,6.46-.04,.29,.04,.72,.23,.9,3.44,3.13,5.8,7.02,7.84,11.13,1.97,3.97,3.44,8.13,4.69,12.38,.06,.21,.13,.41,.25,.77,.16-.36,.27-.59,.36-.82,2.03-5.25,4.05-10.51,6.1-15.75,.23-.58,.15-.98-.23-1.44-1.93-2.39-4.51-3.34-7.48-3.46-.27-.01-.53,.01-.8,0-.85-.03-1.45-.58-1.5-1.38-.05-.83,.49-1.55,1.36-1.59,.94-.04,1.9,0,2.83,.13,3.25,.48,5.98,1.91,8.05,4.52,.14,.17,.5,.33,.69,.27,4.87-1.45,9.03-.04,12.76,3.13,.2,.17,.39,.34,.58,.5,.04-.03,.09-.05,.13-.08ZM23.52,4.9c.09-.02,.02-.02-.04,.01-.17,.1-.33,.2-.49,.31-2.41,1.66-4.04,3.88-4.82,6.72-.28,1.03-.97,1.52-1.85,1.29-.34-.09-.65-.32-.94-.53-1.33-.97-2.81-1.57-4.53-1.85,.29,1.75,.9,3.26,1.92,4.59,.95,1.24,.6,2.32-.91,2.74-1.62,.45-3.07,1.2-4.36,2.27-1.08,.9-1.98,1.95-2.63,3.23,.27-.07,.5-.19,.72-.31,1.61-.89,3.3-1.52,5.12-1.83,.63-.11,1.16,.11,1.51,.65,.35,.54,.34,1.1,0,1.65-.09,.14-.19,.28-.29,.42-1.65,2.35-2.51,4.96-2.52,7.85,0,1.5,.19,2.97,.78,4.55,.11-.29,.15-.41,.2-.53,.49-1.27,.87-2.59,1.49-3.79,2.39-4.65,5.99-7.76,11.31-8.57,.44-.07,.53-.32,.58-.69,.23-1.73,.79-3.36,1.67-4.86,2.35-4.01,5.95-6.37,10.3-7.7,.26-.08,.52-.16,.78-.24-2.3-.93-4.62-1.04-6.97-.59-2.01,.39-3.83,1.21-5.49,2.4-.9,.65-1.99,.49-2.34-.41-.17-.44-.2-1.03-.06-1.47,.58-1.79,1.25-3.55,1.87-5.29Zm-3.04,59.96H58.37c-4.9-6.03-11.02-9.31-18.65-9.4-7.86-.09-14.18,3.2-19.24,9.4Z"/></g></svg>