<?xml version="1.0" encoding="UTF-8"?><svg id="Capa_2" xmlns="http://www.w3.org/2000/svg" viewBox="0 0 56.82 40.16"><defs><style>.cls-1{fill:#7441a1;}</style></defs><g id="Capa_3"><g><path class="cls-1" d="M12.94,40.16c-2.82,0-5.12-2.3-5.12-5.12,0-.7,.15-1.39,.43-2.03H1.05c-.58,0-1.05-.47-1.05-1.05v-9.22c0-.44,.27-.83,.68-.98,.41-.15,.87-.04,1.16,.29,.59,.67,1.39,1.04,2.26,1.04,1.66,0,3.02-1.35,3.02-3.02s-1.35-3.02-3.02-3.02c-.87,0-1.67,.37-2.26,1.04-.29,.33-.75,.45-1.16,.29-.41-.15-.68-.55-.68-.98V8.18c0-.58,.47-1.05,1.05-1.05H10.27c.44,0,.83,.27,.98,.68,.15,.41,.04,.87-.29,1.16-.67,.59-1.04,1.39-1.04,2.26,0,1.66,1.35,3.02,3.02,3.02s3.02-1.35,3.02-3.02c0-.87-.37-1.67-1.04-2.26-.33-.29-.44-.75-.29-1.16,.15-.41,.55-.68,.98-.68h9.22c.58,0,1.05,.47,1.05,1.05v7.2c.63-.28,1.32-.43,2.03-.43,2.82,0,5.12,2.3,5.12,5.12s-2.3,5.12-5.12,5.12c-.7,0-1.39-.15-2.03-.43v7.2c0,.58-.47,1.05-1.05,1.05h-7.2c.28,.63,.43,1.32,.43,2.03,0,2.82-2.3,5.12-5.12,5.12ZM2.1,30.92H10.31c.44,0,.83,.27,.98,.68,.15,.41,.03,.87-.3,1.16-.68,.58-1.07,1.41-1.07,2.28,0,1.66,1.35,3.02,3.02,3.02s3.02-1.35,3.02-3.02c0-.87-.39-1.7-1.07-2.28-.33-.29-.45-.75-.3-1.16,.15-.41,.55-.68,.98-.68h8.21v-8.21c0-.44,.27-.83,.68-.98,.41-.15,.87-.03,1.16,.3,.58,.68,1.41,1.07,2.28,1.07,1.66,0,3.02-1.35,3.02-3.02s-1.35-3.02-3.02-3.02c-.87,0-1.7,.39-2.28,1.07-.29,.33-.75,.45-1.16,.3-.41-.15-.68-.55-.68-.98V9.23h-6.14c.27,.63,.41,1.3,.41,1.99,0,2.82-2.3,5.12-5.12,5.12s-5.12-2.3-5.12-5.12c0-.69,.14-1.37,.41-1.99H2.1v6.14c.63-.27,1.31-.41,2-.41,2.82,0,5.12,2.3,5.12,5.12s-2.3,5.12-5.12,5.12c-.69,0-1.37-.14-2-.42v6.14Z"/><path class="cls-1" d="M48.62,33.03h-9.22c-.44,0-.83-.27-.98-.68-.15-.41-.04-.87,.29-1.16,.67-.59,1.04-1.39,1.04-2.26,0-1.66-1.35-3.02-3.02-3.02s-3.02,1.35-3.02,3.02c0,.87,.37,1.67,1.04,2.26,.33,.29,.44,.75,.29,1.16-.15,.41-.55,.68-.98,.68h-9.22c-.58,0-1.05-.47-1.05-1.05v-9.22c0-.44,.27-.83,.68-.98,.41-.15,.87-.04,1.16,.29,.59,.67,1.39,1.04,2.26,1.04,1.66,0,3.02-1.35,3.02-3.02s-1.35-3.02-3.02-3.02c-.87,0-1.67,.37-2.26,1.04-.29,.33-.75,.44-1.16,.29-.41-.15-.68-.55-.68-.98V8.19c0-.58,.47-1.05,1.05-1.05h7.2c-.28-.63-.43-1.32-.43-2.03,0-2.82,2.3-5.12,5.12-5.12s5.12,2.3,5.12,5.12c0,.7-.15,1.39-.43,2.03h7.2c.58,0,1.05,.47,1.05,1.05v7.2c.63-.28,1.32-.43,2.03-.43,2.82,0,5.12,2.3,5.12,5.12s-2.3,5.12-5.12,5.12c-.7,0-1.39-.15-2.03-.43v7.2c0,.58-.47,1.05-1.05,1.05Zm-7.19-2.1h6.14v-8.21c0-.44,.27-.83,.68-.98,.41-.15,.87-.03,1.16,.3,.58,.68,1.41,1.07,2.28,1.07,1.66,0,3.02-1.35,3.02-3.02s-1.35-3.02-3.02-3.02c-.87,0-1.7,.39-2.28,1.07-.29,.33-.75,.45-1.16,.3-.41-.15-.68-.55-.68-.98V9.24h-8.21c-.44,0-.83-.27-.98-.68-.15-.41-.03-.87,.3-1.16,.68-.58,1.07-1.41,1.07-2.28,0-1.66-1.35-3.02-3.02-3.02s-3.02,1.35-3.02,3.02c0,.87,.39,1.7,1.07,2.28,.33,.29,.45,.75,.3,1.16-.15,.41-.55,.68-.98,.68h-8.21v6.14c.63-.27,1.3-.41,1.99-.41,2.82,0,5.12,2.3,5.12,5.12s-2.3,5.12-5.12,5.12c-.69,0-1.37-.14-1.99-.41v6.14h6.14c-.27-.63-.41-1.31-.41-2,0-2.82,2.3-5.12,5.12-5.12s5.12,2.3,5.12,5.12c0,.69-.14,1.37-.41,2Z"/></g></g></svg>