<?xml version="1.0" encoding="UTF-8"?><svg id="Capa_2" xmlns="http://www.w3.org/2000/svg" viewBox="0 0 70.97 72.96"><defs><style>.cls-1{fill:#fff;}</style></defs><g id="Capa_3"><g><path class="cls-1" d="M14.58,6.86c0,1.46-.06,2.84,.01,4.21,.17,3.28,3.47,5.37,6.48,4.09,1.8-.77,2.79-2.2,2.87-4.17,.06-1.34,.01-2.68,.01-4.08h23.94c0,1.13-.06,2.27,.02,3.39,.06,.86,.15,1.77,.48,2.55,.87,2,3.04,3.01,5.19,2.58,2.08-.42,3.66-2.29,3.72-4.47,.04-1.31,0-2.62,0-4.02,.36-.04,.64-.09,.93-.09,2.09,0,4.18-.02,6.27,0,3.72,.04,6.42,2.67,6.42,6.37,.02,17.81,.02,35.62,0,53.42,0,3.58-2.72,6.3-6.28,6.3-19.43,.02-38.85,.02-58.28,0-3.69,0-6.38-2.74-6.39-6.42C0,48.79,0,31.05,0,13.31c0-3.55,2.49-6.29,5.94-6.42,2.82-.11,5.65-.02,8.63-.02Zm50.41,15.55H5.98v43.3h59.02V22.41Z"/><path class="cls-1" d="M15.86,7.03c0-1.18-.02-2.36,0-3.54C15.9,1.5,17.3,.04,19.18,0c1.94-.04,3.46,1.39,3.5,3.41,.05,2.46,.05,4.92,0,7.38-.04,2.04-1.54,3.47-3.48,3.44-1.91-.03-3.32-1.52-3.35-3.56-.02-1.21,0-2.43,0-3.64Z"/><path class="cls-1" d="M49.22,7.08c0-1.21-.02-2.43,0-3.64,.04-1.94,1.42-3.37,3.26-3.43,1.92-.06,3.47,1.28,3.53,3.26,.08,2.59,.08,5.19,0,7.78-.07,1.91-1.63,3.23-3.5,3.19-1.84-.05-3.24-1.49-3.28-3.41-.03-1.25,0-2.49,0-3.74Z"/><path class="cls-1" d="M46.73,52.72v9h-9.04v-9h9.04Z"/><path class="cls-1" d="M24.24,36.24v-9h9.07v9h-9.07Z"/><path class="cls-1" d="M46.7,36.3h-9.01v-9.08h9.01v9.08Z"/><path class="cls-1" d="M33.31,40.01v9h-9.07v-9h9.07Z"/><path class="cls-1" d="M46.69,49.02h-9v-9.06h9v9.06Z"/><path class="cls-1" d="M24.24,52.71h9.07v9.03h-9.07v-9.03Z"/><path class="cls-1" d="M60.1,36.29h-9.01v-9.05h9.01v9.05Z"/><path class="cls-1" d="M10.85,39.98h9.04v9H10.85v-9Z"/><path class="cls-1" d="M51.11,39.97h8.99v9.02h-8.99v-9.02Z"/><path class="cls-1" d="M10.86,52.71h9.01v9.02H10.86v-9.02Z"/><path class="cls-1" d="M51.08,61.71v-8.98h9.02v8.98h-9.02Z"/></g></g></svg>